<svg xmlns="http://www.w3.org/2000/svg" xmlns:xlink="http://www.w3.org/1999/xlink" width="1280" height="800" viewBox="0 0 1280 800">
  <defs>
    <linearGradient id="sky" x1="0" y1="0" x2="0" y2="1"><stop offset="0" stop-color="#171719"/><stop offset=".5" stop-color="#39231f"/><stop offset="1" stop-color="#8d462d"/></linearGradient>
    <linearGradient id="ground" x1="0" y1="0" x2="0" y2="1"><stop stop-color="#a65a35"/><stop offset="1" stop-color="#3a201c"/></linearGradient>
  </defs>
  <!-- central FPV view -->
  <rect width="1280" height="800" fill="#090b0d"/><rect y="5" width="1280" height="795" fill="url(#sky)"/>
  <path d="M0 455C145 390 240 435 360 400C490 363 550 414 670 393C795 371 895 420 1010 382C1110 349 1190 382 1280 355V800H0Z" fill="#5c3027" opacity=".78"/>
  <path d="M0 545C150 487 300 521 425 493C572 460 690 506 825 474C966 441 1116 473 1280 431V800H0Z" fill="url(#ground)"/>
  <path d="M0 600C180 548 298 587 463 550C638 510 779 555 937 515C1088 477 1176 517 1280 485" fill="none" stroke="#d77a46" stroke-opacity=".35" stroke-width="4"/>
  <path d="M0 678C205 627 363 680 526 635C715 583 876 643 1028 595C1144 559 1210 589 1280 570" fill="none" stroke="#3a211d" stroke-opacity=".7" stroke-width="26"/>
  <g fill="#261a1b" opacity=".72"><path d="M90 493l70-40 108 20 48 64-215 30z"/><path d="M755 476l89-57 112 31 55 58-267 28z"/><path d="M1064 529l69-37 113 14 34 51-187 21z"/></g>
  <g fill="#c97a48" opacity=".28"><circle cx="180" cy="642" r="28"/><circle cx="247" cy="679" r="12"/><circle cx="1024" cy="636" r="23"/><circle cx="1162" cy="698" r="15"/></g>
  <!-- five pixel simulation ribbon -->
  <rect width="1280" height="5" fill="#9449f5"/>
  <!-- compact top status band -->
  <rect y="5" width="1280" height="121" fill="#0b0e12" fill-opacity=".97"/><rect y="125" width="1280" height="1" fill="#343941"/>
  <!-- authentic local wordmark, fully visible -->
  <image xlink:href="lusi-wordmark.png" x="26" y="27" width="188" height="52" preserveAspectRatio="xMidYMid meet"/>
  <text x="26" y="101" fill="#757b85" font-family="Arial,sans-serif" font-size="9" font-weight="700" letter-spacing="2">MARS ANALOG 01</text>
  <g font-family="Arial,sans-serif">
    <g fill="#777d87" font-size="10" font-weight="700" letter-spacing="1.4"><text x="244" y="31">SPEED</text><text x="340" y="31">HEADING</text><text x="460" y="31">DISTANCE</text><text x="577" y="31">MODE</text><text x="670" y="31">ROVER</text><text x="786" y="31">DECK</text></g>
    <g fill="#edf0f2" font-size="22" font-weight="700"><text x="244" y="65">0.0 m/s</text><text x="340" y="65">000°</text><text x="460" y="65">12.4 m</text><text x="577" y="65">SIM</text></g>
    <g fill="#777d87" font-size="9" font-weight="700" letter-spacing="1"><text x="670" y="53">BATTERY</text><text x="786" y="53">BATTERY</text></g>
    <g fill="#edf0f2" font-size="17" font-weight="700"><text x="716" y="86">94%</text><text x="832" y="86">100%</text></g>
    <rect x="670" y="62" width="33" height="18" rx="2" fill="#252a31" stroke="#67707c"/><rect x="673" y="65" width="25" height="12" rx="1" fill="#edf0f2"/><rect x="703" y="68" width="3" height="6" fill="#67707c"/>
    <rect x="786" y="62" width="33" height="18" rx="2" fill="#252a31" stroke="#67707c"/><rect x="789" y="65" width="27" height="12" rx="1" fill="#edf0f2"/><rect x="819" y="68" width="3" height="6" fill="#67707c"/>
    <g stroke="#4a5059"><path d="M227 18V109"/><path d="M318 18V109"/><path d="M438 18V109"/><path d="M557 18V109"/><path d="M648 18V109"/><path d="M764 18V109"/><path d="M857 18V109"/></g>
    <rect x="878" y="29" width="103" height="48" rx="3" fill="#101b16" stroke="#45d98a" stroke-width="2"/><text x="929" y="50" text-anchor="middle" fill="#45d98a" font-size="10" font-weight="700" letter-spacing="1">ACTIVATE</text><text x="929" y="65" text-anchor="middle" fill="#89938f" font-size="8">ROVER READY</text>
    <rect x="997" y="18" width="257" height="91" rx="4" fill="#210d10" stroke="#ebc915" stroke-width="5" stroke-dasharray="16 10"/><rect x="997" y="18" width="5" height="91" fill="#e51d27"/><text x="1128" y="40" text-anchor="middle" fill="#a9adb4" font-size="9" font-weight="700" letter-spacing="1">PRESS AND HOLD</text><text x="1128" y="72" text-anchor="middle" fill="#ffcf10" font-size="22" font-weight="700" letter-spacing="1">E STOP</text><text x="1128" y="94" text-anchor="middle" fill="#a9adb4" font-size="9">B / ESC 1.2 s</text>
  </g>
</svg>
